<svg width="569" height="215" viewBox="0 0 569 215" fill="none" xmlns="http://www.w3.org/2000/svg">
<g clip-path="url(#clip0_87_4)">
<path d="M0 64.5L23.7083 82.4391C47.4167 100.109 94.8333 136.391 142.25 154.061C189.667 172 237.083 172 284.5 154.061C331.917 136.391 379.333 100.109 426.75 78.8109C474.167 57.1094 521.583 50.3906 545.292 46.5609L569 43V215H545.292C521.583 215 474.167 215 426.75 215C379.333 215 331.917 215 284.5 215C237.083 215 189.667 215 142.25 215C94.8333 215 47.4167 215 23.7083 215H0V64.5Z" fill="#66BCE6" fill-opacity="0.6"/>
</g>
<defs>
<clipPath id="clip0_87_4">
<rect width="569" height="215" fill="white"/>
</clipPath>
</defs>
</svg>
