<svg width="320" height="135" viewBox="0 0 320 135" fill="none" xmlns="http://www.w3.org/2000/svg">
<path d="M0 27L10.6667 33.75C21.3333 40.5 42.6667 54 64 54C85.3333 54 106.667 40.5 128 42.7359C149.333 45.1406 170.667 62.8594 192 74.25C213.333 85.6406 234.667 89.8594 256 89.9859C277.333 89.8594 298.667 85.6406 309.333 83.2359L320 81V135H309.333C298.667 135 277.333 135 256 135C234.667 135 213.333 135 192 135C170.667 135 149.333 135 128 135C106.667 135 85.3333 135 64 135C42.6667 135 21.3333 135 10.6667 135H0V27Z" fill="#66BCE6"/>
</svg>
